<svg fill="none" height="550" viewBox="0 0 1280 550" width="1280" xmlns="http://www.w3.org/2000/svg" xmlns:xlink="http://www.w3.org/1999/xlink"><clipPath id="a"><path d="m0 0h1280v550h-1280z"/></clipPath><g clip-path="url(#a)" opacity=".2"><g stroke="#54c7a3" stroke-linejoin="round" stroke-width=".5"><path d="m-3 323.5 33-19.5v39z" fill="#45c49d"/><path d="m30 342.5-33-19.5v39z" fill="#287c61"/><path d="m-3 362.5 33-19.5v39z" fill="#287c61"/><path d="m30 381.5-33-19.5v39z" fill="#0f3027"/><path d="m-3 401.5 33-19.5v39z" fill="#287c5f"/><path d="m30 420.5-33-19.5v39z" fill="#0f3027"/><path d="m849 3.67017 48-28.49997v57z" fill="#6fcfb1"/><path d="m897 32.6702-48-28.50003v57.00003z" fill="#267d5f"/><path d="m849 60.6702 48-28.5v57z" fill="#2b886b"/></g><path clip-rule="evenodd" d="m896.889-24.5659 47.889 28.43401v56.86809l-47.889-28.4341z" fill="#1d5441" fill-rule="evenodd"/><path d="m944.778 3.86811h.25c0-.08822-.047-.16992-.123-.21496zm-47.889-28.43401.128-.215c-.078-.0459-.174-.0467-.252-.0023-.078.0445-.126.1274-.126.2173zm47.889 85.3021-.128.2149c.077.0459.173.0468.251.0023.079-.0444.127-.1274.127-.2172zm-47.889-28.4341h-.25c0 .0883.046.17.122.215zm48.016-28.64895-47.888-28.43405-.256.4299 47.889 28.43408zm-.377.21496v56.86809h.5v-56.86809zm.377 56.65309-47.888-28.434-.256.4299 47.889 28.434zm-48.266-85.0871v56.868h.5v-56.868z" fill="#54c7a3"/><path d="m945 60.6702-48-28.5v57z" fill="#0f2f24" stroke="#54c7a3" stroke-linejoin="round" stroke-width=".5"/><path d="m1184-24.3298 48-28.5v56.99997z" fill="#1b5541" stroke="#54c7a3" stroke-linejoin="round" stroke-width=".5"/><path d="m1232 3.67017 48-28.49997v57z" fill="#112e24" stroke="#54c7a3" stroke-linejoin="round" stroke-width=".5"/><path clip-rule="evenodd" d="m992.667-24.5659-47.889 28.43401v56.86809l47.889-28.4341z" fill="#2b886b" fill-rule="evenodd"/><path d="m944.778 3.86811-.128-.21496c-.076.04504-.122.12674-.122.21496zm47.889-28.43401h.25c0-.0899-.049-.1728-.127-.2173-.078-.0444-.174-.0436-.251.0023zm-47.889 85.3021h-.25c0 .0898.048.1728.126.2172.078.0445.174.0436.251-.0023zm47.889-28.4341.127.215c.076-.045.123-.1267.123-.215zm-47.762-28.21902 47.889-28.43408-.255-.4299-47.889 28.43405zm-.377-.21497v56.86809h.5v-56.86809zm.377 57.08299 47.889-28.434-.255-.4299-47.889 28.434zm47.512-85.517v56.868h.5v-56.868z" fill="#54c7a3"/><path d="m1280 32.6702-48-28.50003v57.00003z" fill="#2a7c62" stroke="#54c7a3" stroke-linejoin="round" stroke-width=".5"/><path d="m1232 60.6702 48-28.5v57z" fill="#2c886c" stroke="#54c7a3" stroke-linejoin="round" stroke-width=".5"/><path d="m1280 89.1702-48-28v55.9998z" fill="#51c9a3" stroke="#54c7a3" stroke-linejoin="round" stroke-width=".5"/><path d="m1232 117.67 48-28.4998v56.9998z" fill="#103124" stroke="#54c7a3" stroke-linejoin="round" stroke-width=".5"/><path d="m1232 174.67 48-28.5v57z" fill="#0f2f24" stroke="#54c7a3" stroke-linejoin="round" stroke-width=".5"/><path d="m1280 145.67-48-28.5v57z" fill="#25795f" stroke="#54c7a3" stroke-linejoin="round" stroke-width=".5"/><path d="m1280 202.67-48-28.5v57z" fill="#1b5541" stroke="#54c7a3" stroke-linejoin="round" stroke-width=".5"/><path d="m1184 145.67-48-28.5v57z" fill="#2e866b" stroke="#54c7a3" stroke-linejoin="round" stroke-width=".5"/><path clip-rule="evenodd" d="m1184.22 146.038-47.89 28.434v56.868l47.89-28.434z" fill="#1b5541" fill-rule="evenodd"/><path d="m1136.33 174.472-.12-.215c-.08.045-.13.127-.13.215zm47.89-28.434h.25c0-.09-.05-.172-.12-.217-.08-.044-.18-.044-.26.002zm-47.89 85.302h-.25c0 .09.05.173.13.218.08.044.17.043.25-.003zm47.89-28.434.13.215c.08-.045.12-.126.12-.215zm-47.76-28.219 47.89-28.434-.26-.43-47.88 28.434zm-.38-.215v56.868h.5v-56.868zm.38 57.083 47.89-28.434-.26-.43-47.88 28.434zm47.51-85.517v56.868h.5v-56.868z" fill="#54c7a3"/><path clip-rule="evenodd" d="m944.778-53-47.889 28.434 47.889 28.43406 47.889-28.43406z" fill="#6ed0b4" fill-rule="evenodd"/><path d="m896.889-24.566-.128-.2149c-.076.045-.122.1267-.122.2149 0 .0883.046.17.122.215zm47.889-28.434.127-.215c-.078-.0467-.176-.0467-.255 0zm0 56.86806-.128.21496c.079.04672.177.04672.255 0zm47.889-28.43406.127.215c.076-.045.123-.1267.123-.215 0-.0882-.047-.1699-.123-.2149zm-95.65.215 47.888-28.434-.255-.43-47.889 28.4341zm47.888 28.0041-47.888-28.434-.256.4299 47.889 28.43402zm0 .42992 47.889-28.43402-.255-.4299-47.889 28.434zm47.889-28.86392-47.889-28.4341-.255.43 47.889 28.434z" fill="#54c7a3"/><path clip-rule="evenodd" d="m1040.56-53-47.893 28.434 47.893 28.43406 47.88 28.43404 47.89-28.43404 47.89-28.43406-47.89-28.434-47.89 28.434z" fill="#2b886b" fill-rule="evenodd"/><path d="m992.667-24.566-.128-.2149c-.076.045-.122.1267-.122.2149 0 .0883.046.17.122.215zm47.893-28.434.12-.215c-.08-.0467-.17-.0467-.25 0zm0 56.86806.12-.21496zm47.88 28.43404-.12.215c.08.0467.17.0467.25 0zm47.89-28.43404.13.21496zm47.89-28.43406.13.215c.08-.045.12-.1267.12-.215 0-.0882-.04-.1699-.12-.2149zm-47.89-28.434.13-.215c-.08-.0467-.18-.0467-.25 0zm-47.89 28.434-.12.215c.08.0467.17.0467.25 0zm-95.646.215 47.886-28.434-.25-.43-47.891 28.4341zm47.886 28.0041-47.886-28.434-.255.4299 47.891 28.43402zm47.89 28.434-47.89-28.434-.25.42992 47.89 28.43408zm47.64-28.434-47.89 28.434.25.43 47.89-28.43408zm.25.42992 47.89-28.43402-.26-.4299-47.88 28.434zm47.89-28.86392-47.89-28.4341-.25.43 47.88 28.434zm-95.78.4299 47.89-28.434-.25-.43-47.89 28.4341zm-48.14-28.434 47.89 28.434.25-.4299-47.89-28.4341z" fill="#54c7a3"/><path d="m1280-24.3298-48-28.5v56.99997z" fill="#51c9a3" stroke="#54c7a3" stroke-linejoin="round" stroke-width=".5"/><path d="m1232 3.67017-48-28.49997v57z" fill="#1b5541" stroke="#54c7a3" stroke-linejoin="round" stroke-width=".5"/><path d="m1184 32.6702 48-28.50003v57.00003z" fill="#287c61" stroke="#54c7a3" stroke-linejoin="round" stroke-width=".5"/><path d="m1232 60.6702-48-28.5v57z" fill="#2e866b" stroke="#54c7a3" stroke-linejoin="round" stroke-width=".5"/><path clip-rule="evenodd" d="m1040.56 3.86811-47.893-28.43401v56.868 56.8681l47.893 28.4338 47.88 28.434v-56.8678-56.8681z" fill="#1b5541" fill-rule="evenodd"/><path d="m992.667-24.5659.127-.215c-.077-.0459-.173-.0467-.251-.0023-.078.0445-.126.1274-.126.2173zm47.893 28.43401.12-.21496zm-47.893 85.30209h-.25c0 .0882.046.1699.122.215zm47.893 28.4338-.13.215zm47.88 28.434-.12.215c.07.046.17.047.25.003.08-.045.12-.128.12-.218zm0-56.8678h.25zm0-56.8681h.25c0-.0882-.04-.1699-.12-.2149zm-95.901-56.6531 47.891 28.43408.25-.42993-47.886-28.43405zm.378 56.6531v-56.868h-.5v56.868zm0 56.8681v-56.8681h-.5v56.8681zm47.763 28.2188-47.886-28.4338-.255.43 47.891 28.4338zm47.89 28.434-47.89-28.434-.25.43 47.89 28.434zm-.38-56.6528v56.8678h.5v-56.8678zm0-56.8681v56.8681h.5v-56.8681zm-47.76-28.21902 47.89 28.43402.25-.4299-47.89-28.43405z" fill="#54c7a3"/><path d="m1232 174.67-48-28.5v57z" fill="#2b886b" stroke="#54c7a3" stroke-linejoin="round" stroke-width=".5"/><path clip-rule="evenodd" d="m1184.22-24.5659-47.89 28.43401-47.89 28.43399v56.8681 56.8678l47.89-28.434 47.89-28.4338v-56.8681z" fill="#0f2f24" fill-rule="evenodd"/><path d="m1136.33 3.86811.13.21497zm47.89-28.43401h.25c0-.0899-.05-.1728-.12-.2173-.08-.0444-.18-.0436-.26.0023zm-95.78 56.868-.12-.2149c-.08.045-.13.1267-.13.2149zm0 113.7359h-.25c0 .09.05.173.13.218.08.044.17.043.25-.003zm47.89-28.434-.12-.215zm47.89-28.4338.13.215c.08-.0451.12-.1268.12-.215zm-47.76-85.08712 47.89-28.43408-.26-.4299-47.88 28.43405zm-47.89 28.43402 47.89-28.43402-.25-.42993-47.89 28.43405zm.12 56.6531v-56.8681h-.5v56.8681zm-.5 0v56.8678h.5v-56.8678zm.38 57.0828 47.89-28.434-.25-.43-47.89 28.434zm95.52-57.2978-47.88 28.4338.25.43 47.89-28.4338zm-.12-56.6531v56.8681h.5v-56.8681zm0-56.868v56.868h.5v-56.868z" fill="#54c7a3"/><path clip-rule="evenodd" d="m1184.22 89.1702-47.89 28.4338 47.89 28.434 47.89-28.434z" fill="#54c7a3" fill-rule="evenodd"/><path d="m1136.33 117.604-.12-.215c-.08.045-.13.127-.13.215s.05.17.13.215zm47.89-28.4338.13-.215c-.08-.0467-.18-.0467-.26 0zm0 56.8678-.13.215c.08.047.18.047.26 0zm47.89-28.434.13.215c.07-.045.12-.127.12-.215s-.05-.17-.12-.215zm-95.65.215 47.89-28.4339-.26-.4299-47.88 28.4338zm47.89 28.004-47.89-28.434-.25.43 47.88 28.434zm0 .43 47.89-28.434-.26-.43-47.89 28.434zm47.89-28.864-47.89-28.4338-.26.4299 47.89 28.4339z" fill="#54c7a3"/><path d="m1184 202.67 48-28.5v57z" fill="#54c7a3" stroke="#54c7a3" stroke-linejoin="round" stroke-width=".5"/><path d="m1184 145.67 48-28.5v57z" fill="#267c61" stroke="#54c7a3" stroke-linejoin="round" stroke-width=".5"/><path d="m1088 145.67 48-28.5v57z" fill="#2a7c65" stroke="#54c7a3" stroke-linejoin="round" stroke-width=".5"/><path clip-rule="evenodd" d="m1088.44 146.038 47.89 28.434v56.868l-47.89-28.434z" fill="#1b5541" fill-rule="evenodd"/><path d="m1136.33 174.472h.25c0-.088-.04-.17-.12-.215zm-47.89-28.434.13-.215c-.08-.046-.17-.046-.25-.002-.08.045-.13.127-.13.217zm47.89 85.302-.12.215c.07.046.17.047.25.003.07-.045.12-.128.12-.218zm-47.89-28.434h-.25c0 .089.05.17.13.215zm48.02-28.649-47.89-28.434-.25.43 47.89 28.434zm-.38.215v56.868h.5v-56.868zm.38 56.653-47.89-28.434-.25.43 47.89 28.434zm-48.27-85.087v56.868h.5v-56.868z" fill="#54c7a3"/><path clip-rule="evenodd" d="m29.8235 420.511-32.8235 19.489v38.978 38.978l32.8235-19.489v-38.978z" fill="#133c2f" fill-rule="evenodd"/><path d="m-3 440-.12763-.215c-.07587.045-.12237.127-.12237.215zm32.8235-19.489h.25c0-.09-.0482-.173-.1263-.217-.0781-.045-.174-.044-.2513.002zm-32.8235 97.445h-.25c0 .09.04823.173.12632.217.0781.045.17405.044.25131-.002zm32.8235-19.489.1277.215c.0758-.045.1223-.127.1223-.215zm-32.69587-58.252 32.82357-19.489-.2553-.43-32.82353 19.489zm.12237 38.763v-38.978h-.5v38.978zm-.5 0v38.978h.5v-38.978zm.37763 39.193 32.82357-19.489-.2553-.43-32.82353 19.489zm32.44587-58.682v38.978h.5v-38.978zm0-38.978v38.978h.5v-38.978z" fill="#54c7a3"/><path clip-rule="evenodd" d="m-3 517.956 32.8235 19.489v38.978l-32.8235-19.489z" fill="#0f2f24" fill-rule="evenodd"/><path d="m29.8235 537.445h.25c0-.088-.0465-.17-.1223-.215zm-32.8235-19.489.12763-.215c-.07726-.046-.17321-.047-.25131-.002-.07809.044-.12632.127-.12632.217zm32.8235 58.467-.1276.215c.0773.046.1732.046.2513.002s.1263-.127.1263-.217zm-32.8235-19.489h-.25c0 .088.0465.17.12237.215zm32.9512-19.704-32.82357-19.489-.25526.43 32.82353 19.489zm-.3777.215v38.978h.5v-38.978zm.3777 38.763-32.82357-19.489-.25526.43 32.82353 19.489zm-33.2012-58.252v38.978h.5v-38.978z" fill="#54c7a3"/><path d="m63 323.5-33-19.5v39z" fill="#267c61" stroke="#54c7a3" stroke-linejoin="round" stroke-width=".5"/><path d="m30 381.5 33-19.5v39z" fill="#70d0b2" stroke="#54c7a3" stroke-linejoin="round" stroke-width=".5"/><path d="m63 401.5-33-19.5v39z" fill="#55c8a4" stroke="#54c7a3" stroke-linejoin="round" stroke-width=".5"/><path clip-rule="evenodd" d="m29.8235 498.467-32.8235 19.489 32.8235 19.489 32.8236-19.489z" fill="#1c5642" fill-rule="evenodd"/><path d="m-3 517.956-.12763-.215c-.07587.045-.12237.127-.12237.215s.0465.17.12237.215zm32.8235-19.489.1277-.215c-.0787-.047-.1766-.047-.2553 0zm0 38.978-.1276.215c.0787.046.1766.046.2553 0zm32.8236-19.489.1276.215c.0759-.045.1224-.127.1224-.215s-.0465-.17-.1224-.215zm-65.51947.215 32.82357-19.489-.2553-.43-32.82353 19.489zm32.82357 19.059-32.82357-19.489-.25526.43 32.82353 19.489zm0 .43 32.8235-19.489-.2553-.43-32.8235 19.489zm32.8235-19.919-32.8235-19.489-.2553.43 32.8235 19.489z" fill="#54c7a3"/><path clip-rule="evenodd" d="m29.8235 420.511 32.8235 19.489v38.978l-32.8235-19.489z" fill="#287c61" fill-rule="evenodd"/><path d="m62.647 440h.25c0-.088-.0465-.17-.1223-.215zm-32.8235-19.489.1276-.215c-.0772-.046-.1732-.047-.2513-.002-.0781.044-.1263.127-.1263.217zm32.8235 58.467-.1276.215c.0772.046.1732.047.2513.002.0781-.044.1263-.127.1263-.217zm-32.8235-19.489h-.25c0 .088.0465.17.1224.215zm32.9512-19.704-32.8236-19.489-.2552.43 32.8235 19.489zm-.3777.215v38.978h.5v-38.978zm.3776 38.763-32.8235-19.489-.2552.43 32.8235 19.489zm-33.2011-58.252v38.978h.5v-38.978z" fill="#54c7a3"/><path d="m30 498.5 33-19.5v39z" fill="#0b211a" stroke="#54c7a3" stroke-linejoin="round" stroke-width=".5"/><path clip-rule="evenodd" d="m62.647 517.956-32.8235 19.489v38.978l32.8235-19.489z" fill="#143b2e" fill-rule="evenodd"/><path d="m29.8235 537.445-.1276-.215c-.0759.045-.1224.127-.1224.215zm32.8235-19.489h.25c0-.09-.0482-.173-.1263-.217-.0781-.045-.1741-.044-.2513.002zm-32.8235 58.467h-.25c0 .09.0482.173.1263.217s.1741.044.2513-.002zm32.8235-19.489.1277.215c.0758-.045.1223-.127.1223-.215zm-32.6959-19.274 32.8236-19.489-.2553-.43-32.8235 19.489zm-.3776-.215v38.978h.5v-38.978zm.3776 39.193 32.8236-19.489-.2553-.43-32.8235 19.489zm32.4459-58.682v38.978h.5v-38.978z" fill="#54c7a3"/><path clip-rule="evenodd" d="m62.6471 323.066 32.8235 19.489v38.978l-32.8235-19.489z" fill="#0f2f24" fill-rule="evenodd"/><path d="m95.4706 342.555h.25c0-.088-.0465-.17-.1223-.215zm-32.8235-19.489.1276-.215c-.0772-.046-.1732-.047-.2513-.002-.0781.044-.1263.127-.1263.217zm32.8235 58.467-.1276.215c.0773.046.1732.047.2513.002.0781-.044.1263-.127.1263-.217zm-32.8235-19.489h-.25c0 .088.0465.17.1224.215zm32.9512-19.704-32.8236-19.489-.2552.43 32.8235 19.489zm-.3777.215v38.978h.5v-38.978zm.3777 38.763-32.8236-19.489-.2552.43 32.8235 19.489zm-33.2012-58.252v38.978h.5v-38.978z" fill="#54c7a3"/><path d="m95 381.5-32-19.5v39z" fill="#267c61" stroke="#54c7a3" stroke-linejoin="round" stroke-width=".5"/><path d="m63 401.5 32-19.5v39z" fill="#52c8a3" stroke="#54c7a3" stroke-linejoin="round" stroke-width=".5"/><path d="m63 478.5 32-19.5v39z" fill="#0f2f24" stroke="#54c7a3" stroke-linejoin="round" stroke-width=".5"/><path d="m63 517.5 32-19.5v39z" fill="#163d30" stroke="#54c7a3" stroke-linejoin="round" stroke-width=".5"/><path d="m128 556.5 33-19.5v39z" fill="#298768" stroke="#54c7a3" stroke-linejoin="round" stroke-width=".5"/><path d="m522 556.5 33-19.5v39z" fill="#0a1410" stroke="#54c7a3" stroke-linejoin="round" stroke-width=".5"/><path clip-rule="evenodd" d="m62.647 401.022-32.8235 19.489 32.8235 19.489 32.8235-19.489z" fill="#123d2f" fill-rule="evenodd"/><path d="m29.8235 420.511-.1276-.215c-.0759.045-.1224.127-.1224.215s.0465.17.1224.215zm32.8235-19.489.1277-.215c-.0787-.047-.1766-.047-.2553 0zm0 38.978-.1276.215c.0787.047.1766.047.2553 0zm32.8235-19.489.1277.215c.0758-.045.1223-.127.1223-.215s-.0465-.17-.1223-.215zm-65.5194.215 32.8236-19.489-.2553-.43-32.8235 19.489zm32.8236 19.059-32.8236-19.489-.2552.43 32.8235 19.489zm0 .43 32.8235-19.489-.2553-.43-32.8235 19.489zm32.8235-19.919-32.8235-19.489-.2553.43 32.8235 19.489z" fill="#54c7a3"/><path clip-rule="evenodd" d="m128.294 401.022 32.824 19.489v38.978l-32.824-19.489z" fill="#309575" fill-rule="evenodd"/><path d="m161.118 420.511h.25c0-.088-.047-.17-.123-.215zm-32.824-19.489.128-.215c-.078-.046-.174-.047-.252-.002-.078.044-.126.127-.126.217zm32.824 58.467-.128.215c.077.046.173.047.251.002.078-.044.127-.127.127-.217zm-32.824-19.489h-.25c0 .088.047.17.122.215zm32.951-19.704-32.823-19.489-.256.43 32.824 19.489zm-.377.215v38.978h.5v-38.978zm.377 38.763-32.823-19.489-.256.43 32.824 19.489zm-33.201-58.252v38.978h.5v-38.978z" fill="#54c7a3"/><path clip-rule="evenodd" d="m95.4706 420.511-32.8235 19.489v38.978l32.8235-19.489z" fill="#0e2f24" fill-rule="evenodd"/><path d="m62.6471 440-.1276-.215c-.0759.045-.1224.127-.1224.215zm32.8235-19.489h.25c0-.09-.0482-.173-.1263-.217-.0781-.045-.174-.044-.2513.002zm-32.8235 58.467h-.25c0 .09.0482.173.1263.217.0781.045.1741.044.2513-.002zm32.8235-19.489.1277.215c.0758-.045.1223-.127.1223-.215zm-32.6959-19.274 32.8236-19.489-.2553-.43-32.8235 19.489zm-.3776-.215v38.978h.5v-38.978zm.3776 39.193 32.8236-19.489-.2553-.43-32.8235 19.489zm32.4459-58.682v38.978h.5v-38.978z" fill="#54c7a3"/><path d="m227 459.5-33-19.5v39z" fill="#287c5f" stroke="#54c7a3" stroke-linejoin="round" stroke-width=".5"/><path d="m95 498.5-32-19.5v39z" fill="#092118" stroke="#54c7a3" stroke-linejoin="round" stroke-width=".5"/><path d="m95 537.5-32-19.5v39z" fill="#07130f" stroke="#54c7a3" stroke-linejoin="round" stroke-width=".5"/><path clip-rule="evenodd" d="m390.882 517.956 32.824 19.489v38.978l-32.824-19.489z" fill="#1b5540" fill-rule="evenodd"/><path d="m423.706 537.445h.25c0-.088-.047-.17-.123-.215zm-32.824-19.489.128-.215c-.077-.046-.173-.047-.251-.002-.078.044-.127.127-.127.217zm32.824 58.467-.128.215c.077.046.173.046.252.002.078-.044.126-.127.126-.217zm-32.824-19.489h-.25c0 .088.047.17.123.215zm32.951-19.704-32.823-19.489-.255.43 32.823 19.489zm-.377.215v38.978h.5v-38.978zm.377 38.763-32.823-19.489-.255.43 32.823 19.489zm-33.201-58.252v38.978h.5v-38.978z" fill="#54c7a3"/><path clip-rule="evenodd" d="m325.235 517.956 32.824 19.489v38.978l-32.824-19.489z" fill="#2b8969" fill-rule="evenodd"/><path d="m358.059 537.445h.25c0-.088-.047-.17-.122-.215zm-32.824-19.489.128-.215c-.077-.046-.173-.047-.251-.002-.078.044-.127.127-.127.217zm32.824 58.467-.128.215c.078.046.173.046.252.002.078-.044.126-.127.126-.217zm-32.824-19.489h-.25c0 .088.047.17.123.215zm32.952-19.704-32.824-19.489-.255.43 32.823 19.489zm-.378.215v38.978h.5v-38.978zm.378 38.763-32.824-19.489-.255.43 32.823 19.489zm-33.202-58.252v38.978h.5v-38.978z" fill="#54c7a3"/><path clip-rule="evenodd" d="m95.4706 303.577-32.8235 19.489 32.8235 19.489zm0 0 32.8234 19.489-32.8234 19.489z" fill="#287c61" fill-rule="evenodd"/><path d="m62.6471 323.066-.1276-.215c-.0759.045-.1224.127-.1224.215s.0465.17.1224.215zm32.8235-19.489h.25c0-.09-.0482-.173-.1263-.217-.0781-.045-.174-.044-.2513.002zm0 38.978-.1276.215c.0773.046.1732.047.2513.002.0781-.044.1263-.127.1263-.217zm32.8234-19.489.128.215c.076-.045.122-.127.122-.215s-.046-.17-.122-.215zm-32.8234-19.489.1277-.215c-.0773-.046-.1733-.047-.2513-.002-.0781.044-.1264.127-.1264.217zm0 38.978h-.25c0 .09.0483.173.1264.217.078.045.174.044.2513-.002zm-32.6959-19.274 32.8236-19.489-.2553-.43-32.8235 19.489zm32.8236 19.059-32.8236-19.489-.2552.43 32.8235 19.489zm-.3777-38.763v38.978h.5v-38.978zm33.2014 19.274-32.8237-19.489-.2553.43 32.824 19.489zm-32.8237 19.919 32.8237-19.489-.255-.43-32.824 19.489zm-.3777-39.193v38.978h.5v-38.978z" fill="#54c7a3"/><path clip-rule="evenodd" d="m128.294 323.066-32.8234 19.489v38.978l32.8234-19.489z" fill="#47c49c" fill-rule="evenodd"/><path d="m95.4706 342.555-.1277-.215c-.0758.045-.1223.127-.1223.215zm32.8234-19.489h.25c0-.09-.048-.173-.126-.217-.078-.045-.174-.044-.252.002zm-32.8234 58.467h-.25c0 .09.0482.173.1263.217.0781.045.174.044.2513-.002zm32.8234-19.489.128.215c.076-.045.122-.127.122-.215zm-32.6958-19.274 32.8238-19.489-.256-.43-32.8231 19.489zm-.3776-.215v38.978h.5v-38.978zm.3776 39.193 32.8238-19.489-.256-.43-32.8231 19.489zm32.4458-58.682v38.978h.5v-38.978z" fill="#54c7a3"/><path clip-rule="evenodd" d="m128.294 362.044-32.8234 19.489 32.8234 19.489 32.824-19.489z" fill="#297d63" fill-rule="evenodd"/><path d="m95.4706 381.533-.1277-.215c-.0758.045-.1223.127-.1223.215s.0465.17.1223.215zm32.8234-19.489.128-.215c-.079-.046-.177-.046-.256 0zm0 38.978-.128.215c.079.047.177.047.256 0zm32.824-19.489.127.215c.076-.045.123-.127.123-.215s-.047-.17-.123-.215zm-65.5198.215 32.8238-19.489-.256-.43-32.8231 19.489zm32.8238 19.059-32.8238-19.489-.2553.43 32.8231 19.489zm0 .43 32.823-19.489-.255-.43-32.824 19.489zm32.823-19.919-32.823-19.489-.256.43 32.824 19.489z" fill="#54c7a3"/><path clip-rule="evenodd" d="m161.118 381.533-32.824 19.489 32.824 19.489 32.823-19.489z" fill="#54c9a4" fill-rule="evenodd"/><path d="m128.294 401.022-.128-.215c-.075.045-.122.127-.122.215s.047.17.122.215zm32.824-19.489.127-.215c-.078-.046-.176-.046-.255 0zm0 38.978-.128.215c.079.047.177.047.255 0zm32.823-19.489.128.215c.076-.045.122-.127.122-.215s-.046-.17-.122-.215zm-65.519.215 32.823-19.489-.255-.43-32.824 19.489zm32.823 19.059-32.823-19.489-.256.43 32.824 19.489zm0 .43 32.824-19.489-.256-.43-32.823 19.489zm32.824-19.919-32.824-19.489-.255.43 32.823 19.489z" fill="#54c7a3"/><path d="m128 478.5-33-19.5v39z" fill="#1b5541" stroke="#54c7a3" stroke-linejoin="round" stroke-width=".5"/><path d="m128 517.5-33-19.5v39z" fill="#287b64" stroke="#54c7a3" stroke-linejoin="round" stroke-width=".5"/><path clip-rule="evenodd" d="m423.706 498.467-32.824 19.489 32.824 19.489 32.823-19.489z" fill="#2e785f" fill-rule="evenodd"/><path d="m390.882 517.956-.127-.215c-.076.045-.123.127-.123.215s.047.17.123.215zm32.824-19.489.127-.215c-.078-.047-.176-.047-.255 0zm0 38.978-.128.215c.079.046.177.046.255 0zm32.823-19.489.128.215c.076-.045.122-.127.122-.215s-.046-.17-.122-.215zm-65.519.215 32.823-19.489-.255-.43-32.823 19.489zm32.823 19.059-32.823-19.489-.255.43 32.823 19.489zm0 .43 32.824-19.489-.255-.43-32.824 19.489zm32.824-19.919-32.824-19.489-.255.43 32.824 19.489z" fill="#54c7a3"/><path clip-rule="evenodd" d="m358.059 498.467-32.824 19.489 32.824 19.489zm0 0 32.823 19.489-32.823 19.489z" fill="#287962" fill-rule="evenodd"/><path d="m325.235 517.956-.127-.215c-.076.045-.123.127-.123.215s.047.17.123.215zm32.824-19.489h.25c0-.09-.048-.173-.126-.217-.079-.045-.174-.044-.252.002zm0 38.978-.128.215c.078.046.173.046.252.002.078-.044.126-.127.126-.217zm32.823-19.489.128.215c.076-.045.122-.127.122-.215s-.046-.17-.122-.215zm-32.823-19.489.128-.215c-.078-.046-.174-.047-.252-.002-.078.044-.126.127-.126.217zm0 38.978h-.25c0 .09.048.173.126.217s.174.044.252-.002zm-32.696-19.274 32.824-19.489-.256-.43-32.823 19.489zm32.824 19.059-32.824-19.489-.255.43 32.823 19.489zm-.378-38.763v38.978h.5v-38.978zm33.201 19.274-32.823-19.489-.256.43 32.824 19.489zm-32.823 19.919 32.823-19.489-.255-.43-32.824 19.489zm-.378-39.193v38.978h.5v-38.978z" fill="#54c7a3"/><path d="m128 556.5-33-19.5v39z" fill="#0e2f24" stroke="#54c7a3" stroke-linejoin="round" stroke-width=".5"/><path d="m194 556.5-33-19.5v39z" fill="#04150f" stroke="#54c7a3" stroke-linejoin="round" stroke-width=".5"/><path clip-rule="evenodd" d="m292.412 537.445-32.824 19.489 32.824 19.489 32.823-19.489z" fill="#287c61" fill-rule="evenodd"/><path d="m259.588 556.934-.127-.215c-.076.045-.123.127-.123.215s.047.17.123.215zm32.824-19.489.127-.215c-.078-.047-.176-.047-.255 0zm0 38.978-.128.215c.079.046.177.046.255 0zm32.823-19.489.128.215c.076-.045.122-.127.122-.215s-.046-.17-.122-.215zm-65.519.215 32.823-19.489-.255-.43-32.823 19.489zm32.823 19.059-32.823-19.489-.255.43 32.823 19.489zm0 .43 32.824-19.489-.255-.43-32.824 19.489zm32.824-19.919-32.824-19.489-.255.43 32.824 19.489z" fill="#54c7a3"/><path d="m522 556.5-33-19.5v39z" fill="#103125" stroke="#54c7a3" stroke-linejoin="round" stroke-width=".5"/><path clip-rule="evenodd" d="m95.4706 381.533 32.8234 19.489v38.978l-32.8234-19.489z" fill="#2c896c" fill-rule="evenodd"/><path d="m128.294 401.022h.25c0-.088-.046-.17-.122-.215zm-32.8234-19.489.1276-.215c-.0773-.046-.1732-.047-.2513-.002-.0781.044-.1263.127-.1263.217zm32.8234 58.467-.128.215c.078.046.174.047.252.002.078-.044.126-.127.126-.217zm-32.8234-19.489h-.25c0 .088.0465.17.1223.215zm32.9514-19.704-32.8238-19.489-.2553.43 32.8231 19.489zm-.378.215v38.978h.5v-38.978zm.378 38.763-32.8238-19.489-.2553.43 32.8231 19.489zm-33.2014-58.252v38.978h.5v-38.978z" fill="#54c7a3"/><path clip-rule="evenodd" d="m193.941 401.022-32.823 19.489v38.978l32.823-19.489z" fill="#0e2f24" fill-rule="evenodd"/><path d="m161.118 420.511-.128-.215c-.076.045-.122.127-.122.215zm32.823-19.489h.25c0-.09-.048-.173-.126-.217-.078-.045-.174-.044-.251.002zm-32.823 58.467h-.25c0 .09.048.173.126.217.078.045.174.044.251-.002zm32.823-19.489.128.215c.076-.045.122-.127.122-.215zm-32.696-19.274 32.824-19.489-.255-.43-32.824 19.489zm-.377-.215v38.978h.5v-38.978zm.377 39.193 32.824-19.489-.255-.43-32.824 19.489zm32.446-58.682v38.978h.5v-38.978z" fill="#54c7a3"/><path clip-rule="evenodd" d="m128.294 440-32.8234 19.489 32.8234 19.489 32.824-19.489z" fill="#0f2f24" fill-rule="evenodd"/><path d="m95.4706 459.489-.1277-.215c-.0758.045-.1223.127-.1223.215s.0465.17.1223.215zm32.8234-19.489.128-.215c-.079-.047-.177-.047-.256 0zm0 38.978-.128.215c.079.047.177.047.256 0zm32.824-19.489.127.215c.076-.045.123-.127.123-.215s-.047-.17-.123-.215zm-65.5198.215 32.8238-19.489-.256-.43-32.8231 19.489zm32.8238 19.059-32.8238-19.489-.2553.43 32.8231 19.489zm0 .43 32.823-19.489-.255-.43-32.824 19.489zm32.823-19.919-32.823-19.489-.256.43 32.824 19.489z" fill="#54c7a3"/><path d="m161 459.5 33-19.5v39z" fill="#2b886d" stroke="#54c7a3" stroke-linejoin="round" stroke-width=".5"/><path d="m95 498.5 33-19.5v39z" fill="#56c6a5" stroke="#54c7a3" stroke-linejoin="round" stroke-width=".5"/><path clip-rule="evenodd" d="m161.118 459.489 32.823 19.489v38.978l-32.823-19.489z" fill="#0f3125" fill-rule="evenodd"/><path d="m193.941 478.978h.25c0-.088-.046-.17-.122-.215zm-32.823-19.489.127-.215c-.077-.046-.173-.047-.251-.002-.078.044-.126.127-.126.217zm32.823 58.467-.127.215c.077.046.173.047.251.002.078-.044.126-.127.126-.217zm-32.823-19.489h-.25c0 .088.046.17.122.215zm32.951-19.704-32.824-19.489-.255.43 32.824 19.489zm-.378.215v38.978h.5v-38.978zm.378 38.763-32.824-19.489-.255.43 32.824 19.489zm-33.201-58.252v38.978h.5v-38.978z" fill="#54c7a3"/><path clip-rule="evenodd" d="m292.412 459.489-32.824-19.489-32.823 19.489-32.824 19.489 32.824 19.489 32.823 19.489 32.824-19.489 32.823-19.489z" fill="#1b5541" fill-rule="evenodd"/><path d="m259.588 440 .128-.215c-.079-.047-.177-.047-.255 0zm-32.823 19.489-.128-.215zm-32.824 19.489-.127-.215c-.076.045-.123.127-.123.215s.047.17.123.215zm32.824 19.489-.128.215zm32.823 19.489-.127.215c.078.047.176.047.255 0zm32.824-19.489-.128-.215zm32.823-19.489.128.215c.076-.045.122-.127.122-.215s-.046-.17-.122-.215zm-65.774-38.763 32.823 19.489.255-.43-32.823-19.489zm-32.569 19.489 32.824-19.489-.255-.43-32.824 19.489zm-32.823 19.489 32.823-19.489-.255-.43-32.823 19.489zm32.823 19.059-32.823-19.489-.255.43 32.823 19.489zm32.824 19.489-32.824-19.489-.255.43 32.824 19.489zm32.568-19.489-32.823 19.489.255.43 32.823-19.489zm32.824-19.489-32.824 19.489.255.43 32.824-19.489zm-32.824-19.059 32.824 19.489.255-.43-32.824-19.489z" fill="#54c7a3"/><path clip-rule="evenodd" d="m456.529 517.956-32.823 19.489v38.978l32.823-19.489z" fill="#08150e" fill-rule="evenodd"/><path d="m423.706 537.445-.128-.215c-.076.045-.122.127-.122.215zm32.823-19.489h.25c0-.09-.048-.173-.126-.217-.078-.045-.174-.044-.251.002zm-32.823 58.467h-.25c0 .09.048.173.126.217s.174.044.251-.002zm32.823-19.489.128.215c.076-.045.122-.127.122-.215zm-32.696-19.274 32.824-19.489-.255-.43-32.824 19.489zm-.377-.215v38.978h.5v-38.978zm.377 39.193 32.824-19.489-.255-.43-32.824 19.489zm32.446-58.682v38.978h.5v-38.978z" fill="#54c7a3"/><path clip-rule="evenodd" d="m128.294 517.956-32.8234 19.489 32.8234 19.489 32.824-19.489z" fill="#1d5441" fill-rule="evenodd"/><path d="m95.4706 537.445-.1277-.215c-.0758.045-.1223.127-.1223.215s.0465.17.1223.215zm32.8234-19.489.128-.215c-.079-.047-.177-.047-.256 0zm0 38.978-.128.215c.079.046.177.046.256 0zm32.824-19.489.127.215c.076-.045.123-.127.123-.215s-.047-.17-.123-.215zm-65.5198.215 32.8238-19.489-.256-.43-32.8231 19.489zm32.8238 19.059-32.8238-19.489-.2553.43 32.8231 19.489zm0 .43 32.823-19.489-.255-.43-32.824 19.489zm32.823-19.919-32.823-19.489-.256.43 32.824 19.489z" fill="#54c7a3"/><path d="m161 537.5 33-19.5v39z" fill="#2b7a5f" stroke="#54c7a3" stroke-linejoin="round" stroke-width=".5"/><path clip-rule="evenodd" d="m193.941 478.978 32.824 19.489 32.823 19.489v38.978l-32.823 19.489-32.824-19.489v-38.978z" fill="#0f2f24" fill-rule="evenodd"/><path d="m193.941 478.978.128-.215c-.077-.046-.173-.047-.252-.002-.078.044-.126.127-.126.217zm65.647 38.978h.25c0-.088-.046-.17-.122-.215zm0 38.978.128.215c.076-.045.122-.127.122-.215zm-32.823 19.489-.128.215c.079.047.177.047.255 0zm-32.824-19.489h-.25c0 .088.047.17.123.215zm32.951-58.682-32.823-19.489-.255.43 32.823 19.489zm32.824 19.489-32.824-19.489-.255.43 32.824 19.489zm-.378.215v38.978h.5v-38.978zm-32.446 58.682 32.824-19.489-.255-.43-32.824 19.489zm-33.078-19.489 32.823 19.489.255-.43-32.823-19.489zm-.123-39.193v38.978h.5v-38.978zm0-38.978v38.978h.5v-38.978z" fill="#54c7a3"/><path clip-rule="evenodd" d="m292.412 498.467 32.823-19.489v38.978 38.978l-32.823-19.489-32.824 19.489v-38.978z" fill="#133c2f" fill-rule="evenodd"/><path d="m325.235 478.978h.25c0-.09-.048-.173-.126-.217-.078-.045-.174-.044-.251.002zm-32.823 19.489.127.215zm32.823 58.467-.127.215c.077.046.173.047.251.002.078-.044.126-.127.126-.217zm-32.823-19.489.127-.215c-.078-.047-.176-.047-.255 0zm-32.824 19.489h-.25c0 .09.048.173.127.217.078.045.174.044.251-.002zm0-38.978-.127-.215c-.076.045-.123.127-.123.215zm65.52-39.193-32.824 19.489.255.43 32.824-19.489zm.377 39.193v-38.978h-.5v38.978zm-.5 0v38.978h.5v-38.978zm.378 38.763-32.824-19.489-.255.43 32.824 19.489zm-65.647.43 32.823-19.489-.255-.43-32.823 19.489zm-.378-39.193v38.978h.5v-38.978zm32.946-19.704-32.823 19.489.255.43 32.823-19.489z" fill="#54c7a3"/><path clip-rule="evenodd" d="m390.882 517.956-32.823 19.489v38.978l32.823-19.489z" fill="#081410" fill-rule="evenodd"/><path d="m358.059 537.445-.128-.215c-.076.045-.122.127-.122.215zm32.823-19.489h.25c0-.09-.048-.173-.126-.217-.078-.045-.174-.044-.251.002zm-32.823 58.467h-.25c0 .09.048.173.126.217s.174.044.251-.002zm32.823-19.489.128.215c.076-.045.122-.127.122-.215zm-32.696-19.274 32.824-19.489-.255-.43-32.824 19.489zm-.377-.215v38.978h.5v-38.978zm.377 39.193 32.824-19.489-.255-.43-32.824 19.489zm32.446-58.682v38.978h.5v-38.978z" fill="#54c7a3"/><path clip-rule="evenodd" d="m522.176 517.956-32.823 19.489 32.823 19.489 32.824-19.489z" fill="#287c61" fill-rule="evenodd"/><path d="m489.353 537.445-.128-.215c-.076.045-.122.127-.122.215s.046.17.122.215zm32.823-19.489.128-.215c-.079-.047-.177-.047-.255 0zm0 38.978-.127.215c.078.046.176.046.255 0zm32.824-19.489.128.215c.075-.045.122-.127.122-.215s-.047-.17-.122-.215zm-65.519.215 32.823-19.489-.255-.43-32.824 19.489zm32.823 19.059-32.823-19.489-.256.43 32.824 19.489zm0 .43 32.824-19.489-.256-.43-32.823 19.489zm32.824-19.919-32.824-19.489-.255.43 32.823 19.489z" fill="#54c7a3"/></g></svg>