<svg fill="none" height="120" viewBox="0 0 400 120" width="400" xmlns="http://www.w3.org/2000/svg" xmlns:xlink="http://www.w3.org/1999/xlink"><clipPath id="a"><path d="m0 0h400v120h-400z"/></clipPath><g clip-path="url(#a)" opacity=".2"><path clip-rule="evenodd" d="m9 74 20 12v24l-20-12z" fill="#309575" fill-rule="evenodd"/><path d="m29 86h.25c0-.0878-.0461-.1692-.1214-.2144zm-20-12 .12862-.2144c-.07723-.0463-.17342-.0475-.25179-.0031-.07838.0443-.12683.1274-.12683.2175zm20 36-.1286.214c.0772.047.1734.048.2518.004.0783-.045.1268-.128.1268-.218zm-20-12h-.25c0 .0878.04607.1692.12138.2144zm20.1286-12.2144-19.99998-12-.25724.4288 20.00002 12zm-.3786.2144v24h.5v-24zm.3786 23.786-19.99998-12.0004-.25724.4288 20.00002 11.9996zm-20.3786-35.786v24h.5v-24z" fill="#54c7a3"/><g stroke="#54c7a3" stroke-linejoin="round" stroke-width=".5"><path d="m29 110 20-12v24z" fill="#2c8869"/><path d="m69 110-20-12v24z" fill="#287c61"/><path d="m312 110 20-12v24z" fill="#287c61"/></g><path clip-rule="evenodd" d="m89 98-20 12-20 12 20 12 20-12 20 12 20-12-20-12z" fill="#1b5541" fill-rule="evenodd"/><path d="m89 98 .1286-.2144c-.0791-.0475-.1781-.0475-.2572 0zm-40 24-.1286-.214c-.0753.045-.1214.126-.1214.214s.0461.169.1214.214zm20 12-.1286.214c.0791.048.1781.048.2572 0zm20-12 .1286-.214c-.0791-.048-.1781-.048-.2572 0zm20 12-.129.214c.08.048.178.048.258 0zm20-12 .129.214c.075-.045.121-.126.121-.214s-.046-.169-.121-.214zm-20-12 .129-.214zm-39.8714.214 20-11.9996-.2572-.4288-20 12.0004zm-20 12 20-12-.2572-.428-20 12zm20 11.572-20-12-.2572.428 20 12zm19.7428-12-20 12 .2572.428 20-12zm20.2576 12-20.0004-12-.2572.428 19.9996 12zm0 .428 20-12-.258-.428-20 12zm20-12.428-20-12-.258.428 20 12zm-40.2576-23.5716 19.9996 11.9996.258-.428-20.0004-12.0004z" fill="#54c7a3"/><path d="m332 122 20-12v24z" fill="#0b3124" stroke="#54c7a3" stroke-linejoin="round" stroke-width=".5"/><path d="m372 122 20-12v24z" fill="#1b5541" stroke="#54c7a3" stroke-linejoin="round" stroke-width=".5"/><path d="m412 122-20-12v24z" fill="#0f2f24" stroke="#54c7a3" stroke-linejoin="round" stroke-width=".5"/><path clip-rule="evenodd" d="m352 62-20 12 20 12 20-12z" fill="#55c8a6" fill-rule="evenodd"/><path d="m332 74-.129-.2144c-.075.0452-.121.1266-.121.2144s.046.1692.121.2144zm20-12 .129-.2144c-.08-.0475-.178-.0475-.258 0zm0 24-.129.2144c.08.0475.178.0475.258 0zm20-12 .129.2144c.075-.0452.121-.1266.121-.2144s-.046-.1692-.121-.2144zm-39.871.2144 20-12-.258-.4288-20 12zm20 11.5712-20-12-.258.4288 20 12zm0 .4288 20-12-.258-.4288-20 12zm20-12.4288-20-12-.258.4288 20 12z" fill="#54c7a3"/><path d="m412 74-20-12v24z" fill="#54c7a3" stroke="#54c7a3" stroke-linejoin="round" stroke-width=".5"/><path d="m352 110-20-12v24z" fill="#2c8869" stroke="#54c7a3" stroke-linejoin="round" stroke-width=".5"/><path clip-rule="evenodd" d="m49 74-20 12v24l20-12z" fill="#113025" fill-rule="evenodd"/><path d="m29 86-.1286-.2144c-.0753.0452-.1214.1266-.1214.2144zm20-12h.25c0-.0901-.0484-.1732-.1268-.2175-.0784-.0444-.1746-.0432-.2518.0031zm-20 36h-.25c0 .09.0484.173.1268.218.0784.044.1746.043.2518-.004zm20-12 .1286.2144c.0753-.0452.1214-.1266.1214-.2144zm-19.8714-11.7856 20-12-.2572-.4288-20 12zm-.3786-.2144v24h.5v-24zm.3786 24.214 20-11.9996-.2572-.4288-20 12.0004zm19.6214-36.214v24h.5v-24z" fill="#54c7a3"/><path clip-rule="evenodd" d="m29 62-20 12 20 12 20-12z" fill="#55c8a4" fill-rule="evenodd"/><path d="m9 74-.12862-.2144c-.07531.0452-.12138.1266-.12138.2144s.04607.1692.12138.2144zm20-12 .1286-.2144c-.0791-.0475-.1781-.0475-.2572 0zm0 24-.1286.2144c.0791.0475.1781.0475.2572 0zm20-12 .1286.2144c.0753-.0452.1214-.1266.1214-.2144s-.0461-.1692-.1214-.2144zm-39.87138.2144 19.99998-12-.2572-.4288-20.00002 12zm19.99998 11.5712-19.99998-12-.25724.4288 20.00002 12zm0 .4288 20-12-.2572-.4288-20 12zm20-12.4288-20-12-.2572.4288 20 12z" fill="#54c7a3"/><path clip-rule="evenodd" d="m392 62-20 12v24l20-12z" fill="#2c8869" fill-rule="evenodd"/><path d="m372 74-.129-.2144c-.075.0452-.121.1266-.121.2144zm20-12h.25c0-.0901-.048-.1732-.127-.2175-.078-.0444-.174-.0432-.252.0031zm-20 36h-.25c0 .0901.048.1732.127.2175.078.0444.174.0432.252-.0031zm20-12 .129.2144c.075-.0452.121-.1266.121-.2144zm-19.871-11.7856 20-12-.258-.4288-20 12zm-.379-.2144v24h.5v-24zm.379 24.2144 20-12-.258-.4288-20 12zm19.621-36.2144v24h.5v-24z" fill="#54c7a3"/><path clip-rule="evenodd" d="m372 98-20 12 20 12 20-12z" fill="#0f3125" fill-rule="evenodd"/><path d="m352 110-.129-.214c-.075.045-.121.126-.121.214s.046.169.121.214zm20-12 .129-.2144c-.08-.0475-.178-.0475-.258 0zm0 24-.129.214c.08.048.178.048.258 0zm20-12 .129.214c.075-.045.121-.126.121-.214s-.046-.169-.121-.214zm-39.871.214 20-11.9996-.258-.4288-20 12.0004zm20 11.572-20-12-.258.428 20 12zm0 .428 20-12-.258-.428-20 12zm20-12.428-20-12.0004-.258.4288 20 11.9996z" fill="#54c7a3"/><path clip-rule="evenodd" d="m372 26 20 12v24l-20-12z" fill="#47c49c" fill-rule="evenodd"/><path d="m392 38h.25c0-.0878-.046-.1692-.121-.2144zm-20-12 .129-.2144c-.078-.0463-.174-.0475-.252-.0031-.079.0443-.127.1274-.127.2175zm20 36-.129.2144c.078.0463.174.0475.252.0031.079-.0443.127-.1274.127-.2175zm-20-12h-.25c0 .0878.046.1692.121.2144zm20.129-12.2144-20-12-.258.4288 20 12zm-.379.2144v24h.5v-24zm.379 23.7856-20-12-.258.4288 20 12zm-20.379-35.7856v24h.5v-24z" fill="#54c7a3"/><path clip-rule="evenodd" d="m372 74-20 12v24l20-12z" fill="#309575" fill-rule="evenodd"/><path d="m352 86-.129-.2144c-.075.0452-.121.1266-.121.2144zm20-12h.25c0-.0901-.048-.1732-.127-.2175-.078-.0444-.174-.0432-.252.0031zm-20 36h-.25c0 .09.048.173.127.218.078.044.174.043.252-.004zm20-12 .129.2144c.075-.0452.121-.1266.121-.2144zm-19.871-11.7856 20-12-.258-.4288-20 12zm-.379-.2144v24h.5v-24zm.379 24.214 20-11.9996-.258-.4288-20 12.0004zm19.621-36.214v24h.5v-24z" fill="#54c7a3"/><path clip-rule="evenodd" d="m372 50-20 12 20 12 20-12z" fill="#267c61" fill-rule="evenodd"/><path d="m352 62-.129-.2144c-.075.0452-.121.1266-.121.2144s.046.1692.121.2144zm20-12 .129-.2144c-.08-.0475-.178-.0475-.258 0zm0 24-.129.2144c.08.0475.178.0475.258 0zm20-12 .129.2144c.075-.0452.121-.1266.121-.2144s-.046-.1692-.121-.2144zm-39.871.2144 20-12-.258-.4288-20 12zm20 11.5712-20-12-.258.4288 20 12zm0 .4288 20-12-.258-.4288-20 12zm20-12.4288-20-12-.258.4288 20 12z" fill="#54c7a3"/><path clip-rule="evenodd" d="m332 74 20 12v24l-20-12z" fill="#102b22" fill-rule="evenodd"/><path d="m352 86h.25c0-.0878-.046-.1692-.121-.2144zm-20-12 .129-.2144c-.078-.0463-.174-.0475-.252-.0031-.079.0443-.127.1274-.127.2175zm20 36-.129.214c.078.047.174.048.252.004.079-.045.127-.128.127-.218zm-20-12h-.25c0 .0878.046.1692.121.2144zm20.129-12.2144-20-12-.258.4288 20 12zm-.379.2144v24h.5v-24zm.379 23.786-20-12.0004-.258.4288 20 11.9996zm-20.379-35.786v24h.5v-24z" fill="#54c7a3"/><path d="m392 86 20-12v24z" fill="#113a2c" stroke="#54c7a3" stroke-linejoin="round" stroke-width=".5"/><path clip-rule="evenodd" d="m392 86 20 12v24l-20-12z" fill="#0f2f24" fill-rule="evenodd"/><path d="m412 98h.25c0-.0878-.046-.1692-.121-.2144zm-20-12 .129-.2144c-.078-.0463-.174-.0475-.252-.0031-.079.0443-.127.1274-.127.2175zm20 36-.129.214c.078.047.174.048.252.004.079-.045.127-.128.127-.218zm-20-12h-.25c0 .088.046.169.121.214zm20.129-12.2144-20-12-.258.4288 20 12zm-.379.2144v24h.5v-24zm.379 23.786-20-12-.258.428 20 12zm-20.379-35.786v24h.5v-24z" fill="#54c7a3"/><path d="m392 62 20-12v24z" fill="#2e7e63" stroke="#54c7a3" stroke-linejoin="round" stroke-width=".5"/><path clip-rule="evenodd" d="m412 26-20 12v24l20-12z" fill="#0e2f24" fill-rule="evenodd"/><path d="m392 38-.129-.2144c-.075.0452-.121.1266-.121.2144zm20-12h.25c0-.0901-.048-.1732-.127-.2175-.078-.0444-.174-.0432-.252.0031zm-20 36h-.25c0 .0901.048.1732.127.2175.078.0444.174.0432.252-.0031zm20-12 .129.2144c.075-.0452.121-.1266.121-.2144zm-19.871-11.7856 20-12-.258-.4288-20 12zm-.379-.2144v24h.5v-24zm.379 24.2144 20-12-.258-.4288-20 12zm19.621-36.2144v24h.5v-24z" fill="#54c7a3"/><path clip-rule="evenodd" d="m392 14-20 12 20 12 20-12z" fill="#287c5f" fill-rule="evenodd"/><path d="m372 26-.129-.2144c-.075.0452-.121.1266-.121.2144s.046.1692.121.2144zm20-12 .129-.2144c-.08-.0475-.178-.0475-.258 0zm0 24-.129.2144c.08.0475.178.0475.258 0zm20-12 .129.2144c.075-.0452.121-.1266.121-.2144s-.046-.1692-.121-.2144zm-39.871.2144 20-12-.258-.4288-20 12zm20 11.5712-20-12-.258.4288 20 12zm0 .4288 20-12-.258-.4288-20 12zm20-12.4288-20-12-.258.4288 20 12z" fill="#54c7a3"/><path d="m49 122-20-12v24z" fill="#0f2f24" stroke="#54c7a3" stroke-linejoin="round" stroke-width=".5"/><path clip-rule="evenodd" d="m292 98-20 12-20 12 20 12 20-12 20 12 20-12-20-12z" fill="#1b5541" fill-rule="evenodd"/><path d="m292 98 .129-.2144c-.08-.0475-.178-.0475-.258 0zm-40 24-.129-.214c-.075.045-.121.126-.121.214s.046.169.121.214zm20 12-.129.214c.08.048.178.048.258 0zm20-12 .129-.214c-.08-.048-.178-.048-.258 0zm20 12-.129.214c.08.048.178.048.258 0zm20-12 .129.214c.075-.045.121-.126.121-.214s-.046-.169-.121-.214zm-20-12 .129-.214zm-39.871.214 20-11.9996-.258-.4288-20 12.0004zm-20 12 20-12-.258-.428-20 12zm20 11.572-20-12-.258.428 20 12zm19.742-12-20 12 .258.428 20-12zm20.258 12-20-12-.258.428 20 12zm0 .428 20-12-.258-.428-20 12zm20-12.428-20-12-.258.428 20 12zm-40.258-23.5716 20 11.9996.258-.428-20-12.0004z" fill="#54c7a3"/><path d="m9 26-20-12v24z" fill="#2a795e" stroke="#54c7a3" stroke-linejoin="round" stroke-width=".5"/><path d="m-11 38 20-12v24z" fill="#47c49a" stroke="#54c7a3" stroke-linejoin="round" stroke-width=".5"/><path clip-rule="evenodd" d="m9 50-20 12 20 12 20-12z" fill="#287c61" fill-rule="evenodd"/><path d="m-11 62-.1286-.2144c-.0753.0452-.1214.1266-.1214.2144s.0461.1692.1214.2144zm20-12 .12862-.2144c-.07917-.0475-.17807-.0475-.25724 0zm0 24-.12862.2144c.07917.0475.17807.0475.25724 0zm20-12 .1286.2144c.0753-.0452.1214-.1266.1214-.2144s-.0461-.1692-.1214-.2144zm-39.8714.2144 20.00002-12-.25724-.4288-19.99998 12zm20.00002 11.5712-20.00002-12-.2572.4288 19.99998 12zm0 .4288 19.99998-12-.2572-.4288-20.00002 12zm19.99998-12.4288-19.99998-12-.25724.4288 20.00002 12z" fill="#54c7a3"/><path clip-rule="evenodd" d="m9 98-20 12 20 12 20-12z" fill="#0f2f24" fill-rule="evenodd"/><path d="m-11 110-.1286-.214c-.0753.045-.1214.126-.1214.214s.0461.169.1214.214zm20-12 .12862-.2144c-.07917-.0475-.17807-.0475-.25724 0zm0 24-.12862.214c.07917.048.17807.048.25724 0zm20-12 .1286.214c.0753-.045.1214-.126.1214-.214s-.0461-.169-.1214-.214zm-39.8714.214 20.00002-11.9996-.25724-.4288-19.99998 12.0004zm20.00002 11.572-20.00002-12-.2572.428 19.99998 12zm0 .428 19.99998-12-.2572-.428-20.00002 12zm19.99998-12.428-19.99998-12.0004-.25724.4288 20.00002 11.9996z" fill="#54c7a3"/><path d="m9 50-20-12v24z" fill="#2b886d" stroke="#54c7a3" stroke-linejoin="round" stroke-width=".5"/><path clip-rule="evenodd" d="m-11 62 20 12v24l-20-12z" fill="#2c8869" fill-rule="evenodd"/><path d="m9 74h.25c0-.0878-.04607-.1692-.12138-.2144zm-20-12 .1286-.2144c-.0772-.0463-.1734-.0475-.2518-.0031-.0784.0443-.1268.1274-.1268.2175zm20 36-.12863.2144c.07724.0463.17343.0475.2518.0031.07838-.0443.12683-.1274.12683-.2175zm-20-12h-.25c0 .0878.0461.1692.1214.2144zm20.12862-12.2144-20.00002-12-.2572.4288 19.99998 12zm-.37862.2144v24h.5v-24zm.37862 23.7856-20.00002-12-.2572.4288 19.99997 12zm-20.37862-35.7856v24h.5v-24z" fill="#54c7a3"/></g></svg>